<svg xmlns="http://www.w3.org/2000/svg" viewBox="0 0 645 645"><defs><style>.cls-1,.cls-2{fill:#fff;}.cls-2{fill-rule:evenodd;}</style></defs><title>logo-omms</title><g id="Calque_2" data-name="Calque 2"><path class="cls-1" d="M335.26,524.91s-13.56-10.44-9.36-15"/><path class="cls-1" d="M287.62,554.76c-12.74-4.84-30-6.22-39.65-2.51l2.44,4.27,6.43,8.8,7.41-.75a27.82,27.82,0,0,1,9.9,2.23s12.18-12.52,13.47-12"/><path class="cls-1" d="M328.39,22.93a15,15,0,0,0-3.47,2.85,24.81,24.81,0,0,0-2.16,5.08c-.46,1.42-.49,3.3-1.76,5a17.63,17.63,0,0,1-3.77,3.27,251.83,251.83,0,0,1,25.27,2.45l-.25-.1a17.12,17.12,0,0,0,4-2.87c1.49-1.58,1.64-3.44,2.27-4.79a22.35,22.35,0,0,1,2.66-4.86,14.65,14.65,0,0,1,3.76-2.51h0a260,260,0,0,0-26.42-3.64l-.15.13"/><path class="cls-1" d="M362.43,28.12a14.56,14.56,0,0,0-3.83,2.36,23.89,23.89,0,0,0-2.83,4.81c-.69,1.31-.95,3.17-2.45,4.68a15.81,15.81,0,0,1-4.09,2.75,245.52,245.52,0,0,1,24.7,5.75l-.25-.17A17,17,0,0,0,378,46c1.71-1.41,2.13-3.23,2.91-4.49A23.31,23.31,0,0,1,384.21,37a16.39,16.39,0,0,1,4-2l0,.07a252.48,252.48,0,0,0-25.69-7l-.15.12"/><path class="cls-1" d="M395.47,37.65a15.25,15.25,0,0,0-4.11,1.88,25.21,25.21,0,0,0-3.45,4.37c-.81,1.24-1.32,3-3,4.36a16.28,16.28,0,0,1-4.45,2.18,228.1,228.1,0,0,1,23.73,8.88l-.17-.23a16.11,16.11,0,0,0,4.62-1.69c1.83-1.16,2.45-2.92,3.42-4.09a23.91,23.91,0,0,1,3.86-4,14.61,14.61,0,0,1,4.25-1.47l.05,0a266.09,266.09,0,0,0-24.55-10.27l-.17.08"/><path class="cls-1" d="M427,51.41a14.92,14.92,0,0,0-4.3,1.31,24.53,24.53,0,0,0-4,3.85c-1,1.16-1.74,2.87-3.6,4a17.08,17.08,0,0,1-4.7,1.56A241.26,241.26,0,0,1,432.73,74l-.15-.22a15.81,15.81,0,0,0,4.82-1.09c2-.9,2.86-2.55,3.92-3.62a22.22,22.22,0,0,1,4.37-3.47,15.67,15.67,0,0,1,4.43-.92l0,0a262.17,262.17,0,0,0-23-13.37l-.19.1"/><path class="cls-1" d="M456.44,69.11a16.09,16.09,0,0,0-4.5.74,24,24,0,0,0-4.45,3.33c-1.13,1-2.1,2.58-4.06,3.45a16,16,0,0,1-4.87.92,241.85,241.85,0,0,1,20.59,14.66L459,92a17.06,17.06,0,0,0,5-.5c2-.69,3.13-2.16,4.37-3.08a22.17,22.17,0,0,1,4.77-2.87,15.25,15.25,0,0,1,4.52-.34v0a261.57,261.57,0,0,0-21-16.22l-.19.08"/><path class="cls-1" d="M483.25,90.41a16.54,16.54,0,0,0-4.57.17,24.24,24.24,0,0,0-4.86,2.71c-1.2.85-2.35,2.33-4.48,2.9a16.57,16.57,0,0,1-4.92.34A233.06,233.06,0,0,1,482.9,113.7l-.09-.27a16.77,16.77,0,0,0,4.92.17c2.13-.39,3.49-1.74,4.76-2.46a25.06,25.06,0,0,1,5.11-2.25,15.19,15.19,0,0,1,4.52.25v0a248.27,248.27,0,0,0-18.68-18.8l-.19,0"/><path class="cls-1" d="M507,115a13.88,13.88,0,0,0-4.5-.4,23.68,23.68,0,0,0-5.2,2c-1.35.69-2.69,2-4.84,2.35a16.86,16.86,0,0,1-4.91-.35c5.72,6.27,11.05,12.74,16.07,19.4l-.08-.22a17,17,0,0,0,4.86.75c2.18-.12,3.62-1.26,5-1.83a22.38,22.38,0,0,1,5.43-1.56,14.66,14.66,0,0,1,4.4.82v0a262.49,262.49,0,0,0-16-21H507"/><path class="cls-1" d="M527.41,142.5a15.41,15.41,0,0,0-4.38-1,24.89,24.89,0,0,0-5.5,1.36c-1.4.5-2.93,1.64-5.06,1.68a17,17,0,0,1-4.87-1,231.07,231.07,0,0,1,13.33,21.33v-.23a16,16,0,0,0,4.79,1.37c2.11.2,3.76-.77,5.23-1.14a26,26,0,0,1,5.49-.9,15.81,15.81,0,0,1,4.28,1.42l0,0a261.54,261.54,0,0,0-13.15-22.92l-.19,0"/><path class="cls-1" d="M543.93,172.39a14.88,14.88,0,0,0-4.23-1.58,24.83,24.83,0,0,0-5.55.67c-1.5.32-3.13,1.24-5.3,1a16.15,16.15,0,0,1-4.69-1.61,245.54,245.54,0,0,1,10.49,22.86v-.23a16.26,16.26,0,0,0,4.48,2c2.13.45,3.83-.28,5.33-.45a23.85,23.85,0,0,1,5.62-.17,15.36,15.36,0,0,1,4,2v0a239.31,239.31,0,0,0-10-24.45l-.19,0"/><path class="cls-1" d="M556.39,204.13a15.32,15.32,0,0,0-4-2.08,22.1,22.1,0,0,0-5.58,0c-1.52.08-3.27.77-5.36.25a16.4,16.4,0,0,1-4.43-2.2c2.84,7.94,5.33,16,7.34,24v-.25a17.48,17.48,0,0,0,4.25,2.58c2,.72,3.83.2,5.35.2a25.48,25.48,0,0,1,5.59.59,15,15,0,0,1,3.76,2.48v0a262,262,0,0,0-6.72-25.54l-.19-.07"/><path class="cls-1" d="M564.54,237.22a14.3,14.3,0,0,0-3.65-2.58,21.6,21.6,0,0,0-5.52-.75c-1.52-.13-3.37.35-5.38-.44a16.62,16.62,0,0,1-4.11-2.71A240.9,240.9,0,0,1,550,255.47l0-.23a17,17,0,0,0,3.86,3.1c1.9,1,3.76.69,5.26.89a23.9,23.9,0,0,1,5.46,1.31,14.72,14.72,0,0,1,3.44,2.92l-.05,0a255,255,0,0,0-3.25-26.19l-.2-.07"/><path class="cls-1" d="M568.29,271.06a15.37,15.37,0,0,0-3.3-3,24,24,0,0,0-5.36-1.46c-1.54-.27-3.38-.05-5.26-1.07a16.76,16.76,0,0,1-3.74-3.25,238.86,238.86,0,0,1,.81,25.05l.09-.17a16.2,16.2,0,0,0,3.4,3.5c1.76,1.21,3.66,1.17,5.11,1.56a24.47,24.47,0,0,1,5.24,2,16,16,0,0,1,3,3.32v0a248.2,248.2,0,0,0,.22-26.36l-.19-.13"/><path class="cls-1" d="M567.5,305.13a14.45,14.45,0,0,0-2.84-3.44,22.43,22.43,0,0,0-5.15-2.14c-1.46-.47-3.37-.54-5.08-1.78a15.55,15.55,0,0,1-3.25-3.7,242.59,242.59,0,0,1-2.56,25l.13-.2a18.24,18.24,0,0,0,2.88,4c1.62,1.41,3.52,1.63,4.89,2.23a24.23,24.23,0,0,1,4.94,2.63,16.6,16.6,0,0,1,2.54,3.67v.07a261.56,261.56,0,0,0,3.67-26.12l-.19-.13"/><path class="cls-1" d="M562.26,338.79a14.39,14.39,0,0,0-2.39-3.77A23.55,23.55,0,0,0,555,332.2c-1.34-.65-3.27-.9-4.77-2.41a15.35,15.35,0,0,1-2.74-4.05,243.81,243.81,0,0,1-5.77,24.45l.15-.2a15.8,15.8,0,0,0,2.34,4.27c1.39,1.63,3.25,2.06,4.54,2.82a24.7,24.7,0,0,1,4.5,3.3,14,14,0,0,1,2.06,4l0,0a254.07,254.07,0,0,0,7.11-25.4l-.15-.17"/><path class="cls-1" d="M553.27,371.78a14.79,14.79,0,0,0-1.59-4.16,24.2,24.2,0,0,0-4.13-3.75c-1.2-.84-3-1.53-4.2-3.3a16.57,16.57,0,0,1-1.88-4.51,236.78,236.78,0,0,1-10.64,22.76l.19-.13a16.2,16.2,0,0,0,1.44,4.64c1,1.89,2.72,2.71,3.84,3.69a22.67,22.67,0,0,1,3.79,4.09,14.73,14.73,0,0,1,1.17,4.32A255,255,0,0,0,553.36,372l-.09-.2"/><path class="cls-1" d="M538.74,402.67a15.43,15.43,0,0,0-1.32-4.27,23.31,23.31,0,0,0-3.92-4c-1.15-1-2.91-1.71-4-3.54a18.45,18.45,0,0,1-1.59-4.64,236.31,236.31,0,0,1-12,22.1l.19-.13a16.26,16.26,0,0,0,1.17,4.78c.93,1.88,2.59,2.82,3.64,3.87a24.78,24.78,0,0,1,3.52,4.29,15.39,15.39,0,0,1,.91,4.36l0,0c4.84-7.27,9.34-14.9,13.49-22.72l-.07-.17"/><path class="cls-1" d="M520.81,431.75a14,14,0,0,0-.73-4.39,23,23,0,0,0-3.37-4.44c-1-1.09-2.64-2.06-3.47-4a17.13,17.13,0,0,1-1-4.81,247.67,247.67,0,0,1-14.77,20.38l.21-.13a16.29,16.29,0,0,0,.52,4.83c.63,2.09,2.17,3.18,3.06,4.36a22,22,0,0,1,2.93,4.71,14.78,14.78,0,0,1,.34,4.46v.07c5.8-6.65,11.24-13.62,16.36-20.83l-.08-.2"/><path class="cls-1" d="M499.32,458.29a14.43,14.43,0,0,0-.2-4.41,21.87,21.87,0,0,0-2.76-4.81c-.88-1.27-2.35-2.45-3-4.47a17.3,17.3,0,0,1-.29-4.91A228.67,228.67,0,0,1,475.74,458l.22-.08a17,17,0,0,0-.12,4.91c.37,2.09,1.76,3.37,2.47,4.71a23.59,23.59,0,0,1,2.3,5.08,14.18,14.18,0,0,1-.25,4.46l0,0q9.9-8.77,19-18.57v-.2"/><path class="cls-1" d="M474.41,481.84a15.28,15.28,0,0,0,.44-4.46,24.63,24.63,0,0,0-2.1-5.08c-.69-1.31-2-2.68-2.34-4.81a15.35,15.35,0,0,1,.32-4.88,248,248,0,0,1-19.63,15.89l.27-.07a16.17,16.17,0,0,0-.81,4.81c.12,2.16,1.32,3.64,1.85,5a22.24,22.24,0,0,1,1.61,5.31,15.07,15.07,0,0,1-.88,4.39c7.28-4.91,14.4-10.2,21.27-15.92v-.2"/><path class="cls-1" d="M446.64,502a13.85,13.85,0,0,0,1-4.32,21.94,21.94,0,0,0-1.37-5.43c-.52-1.37-1.64-2.87-1.66-5a16.09,16.09,0,0,1,.93-4.84A231.15,231.15,0,0,1,424,495.64l.29,0a15.57,15.57,0,0,0-1.45,4.71c-.15,2.09.81,3.74,1.2,5.21a23.85,23.85,0,0,1,.88,5.45,14.7,14.7,0,0,1-1.42,4.22h0a263.27,263.27,0,0,0,23.18-13l0-.2"/><path class="cls-1" d="M416.44,518.37a15.82,15.82,0,0,0,1.57-4.19,24.06,24.06,0,0,0-.69-5.53c-.32-1.42-1.22-3.07-1-5.19a15,15,0,0,1,1.61-4.61c-7.61,3.85-15.3,7.29-23.13,10.32h.25a23,23,0,0,0-2.25,4.39,13.05,13.05,0,0,0-.27,5.33,20.86,20.86,0,0,1-2.37,10.1c8.34-2.88,18.05-6.64,26.2-10.39l.07-.23"/><path class="cls-1" d="M382.36,530.53a34,34,0,0,0,1.1-3.23,17.93,17.93,0,0,0,.64-4.71c-.1-1.52-1.22-2.71-.64-4.74,0,0,1.54-4.57,3-6.45-8.11,2.66-19.78,7.21-27.24,11.19-1.76.82-3.45,1.68-3.45,1.68a13.89,13.89,0,0,0-1.12,5.09c-.1,1.59-.34,4-.34,5.66,0,3.52-3.3,8.45-3.3,8.45,8.7-1.51,19.7-6.48,27-10.74l4.26-2.2"/><path class="cls-1" d="M215.15,526.92a14.4,14.4,0,0,0,4.06-1.84,22.55,22.55,0,0,0,3.54-4.32c.79-1.24,1.27-3.08,3-4.39a16.38,16.38,0,0,1,4.45-2.2q-12.18-3.87-23.71-8.81l.19.17a15.83,15.83,0,0,0-4.67,1.73c-1.77,1.14-2.47,2.9-3.38,4a22.48,22.48,0,0,1-3.89,4,14.12,14.12,0,0,1-4.25,1.47l0,0A251.46,251.46,0,0,0,215,527l.15-.1"/><path class="cls-1" d="M183.63,513.23A16.12,16.12,0,0,0,188,512a24.24,24.24,0,0,0,4-3.94c1-1.09,1.73-2.88,3.57-3.94a17.65,17.65,0,0,1,4.69-1.61,230.6,230.6,0,0,1-22.35-11.85l.17.23a16.48,16.48,0,0,0-4.82,1.11c-1.95.92-2.86,2.56-4,3.64a20.31,20.31,0,0,1-4.33,3.47,13.86,13.86,0,0,1-4.42.89c7.38,4.81,15.08,9.22,22.94,13.34l.2-.07"/><path class="cls-1" d="M154.22,495.51a14.05,14.05,0,0,0,4.42-.72,23.08,23.08,0,0,0,4.52-3.33c1.1-1,2.06-2.6,4-3.45a18.34,18.34,0,0,1,4.87-1c-7.16-4.57-14-9.48-20.54-14.58l.08.15a17.74,17.74,0,0,0-4.91.52c-2,.65-3.15,2.16-4.38,3a23.53,23.53,0,0,1-4.77,2.88,15.3,15.3,0,0,1-4.47.32l-.07,0A256.6,256.6,0,0,0,154,495.61l.19-.1"/><path class="cls-1" d="M127.35,474.18a14.48,14.48,0,0,0,4.53-.17,24.49,24.49,0,0,0,4.87-2.7c1.24-.85,2.42-2.33,4.47-2.92a16,16,0,0,1,5-.32,249.15,249.15,0,0,1-18.5-17.18l.12.23a17.15,17.15,0,0,0-5-.13c-2.1.37-3.4,1.78-4.7,2.46A25.91,25.91,0,0,1,113,455.7a15.83,15.83,0,0,1-4.49-.28h0a252,252,0,0,0,18.7,18.8l.19,0"/><path class="cls-1" d="M103.59,449.54a15.91,15.91,0,0,0,4.52.39,20.67,20.67,0,0,0,5.19-2.06c1.36-.65,2.69-2,4.82-2.28a15.9,15.9,0,0,1,4.94.28A248.64,248.64,0,0,1,107,426.48l.07.27a16.62,16.62,0,0,0-4.91-.82c-2.15.13-3.6,1.31-5,1.86a23.62,23.62,0,0,1-5.33,1.58,14.65,14.65,0,0,1-4.45-.85l0,0c5,7.24,10.32,14.23,16,21.06h.22"/><path class="cls-1" d="M83.29,422.06a15.48,15.48,0,0,0,4.36,1,26.11,26.11,0,0,0,5.47-1.41c1.4-.5,2.93-1.61,5.08-1.64a16.29,16.29,0,0,1,4.86,1,242.25,242.25,0,0,1-13.37-21.31v.27A16.07,16.07,0,0,0,85,398.5c-2.1-.17-3.74.82-5.18,1.14a20.74,20.74,0,0,1-5.55.89,15.8,15.8,0,0,1-4.3-1.41l0,0A262.48,262.48,0,0,0,83,422l.26,0"/><path class="cls-1" d="M66.71,392.18A16,16,0,0,0,71,393.76a22.85,22.85,0,0,0,5.54-.69c1.54-.34,3.14-1.24,5.33-1a17.34,17.34,0,0,1,4.65,1.58A243.13,243.13,0,0,1,76.07,370.8v.25a16.9,16.9,0,0,0-4.55-2c-2.08-.45-3.83.3-5.35.49a26.18,26.18,0,0,1-5.57.13,15.61,15.61,0,0,1-4.08-2v0a255.66,255.66,0,0,0,10,24.46l.17,0"/><path class="cls-1" d="M54.26,360.44a15.63,15.63,0,0,0,4,2.09,22.78,22.78,0,0,0,5.58.07c1.49-.13,3.25-.79,5.38-.3a15.59,15.59,0,0,1,4.42,2.16,247.65,247.65,0,0,1-7.36-24v.22a16.44,16.44,0,0,0-4.16-2.55c-2.1-.72-3.88-.17-5.42-.23a23.76,23.76,0,0,1-5.6-.59,14.17,14.17,0,0,1-3.72-2.45v0a233.3,233.3,0,0,0,6.72,25.54l.15.07"/><path class="cls-1" d="M46.11,327.34A14.79,14.79,0,0,0,49.76,330a29.6,29.6,0,0,0,5.55.75c1.51.07,3.33-.4,5.38.39a15.93,15.93,0,0,1,4.11,2.75,239.4,239.4,0,0,1-4.11-24.75l-.1.23a16.77,16.77,0,0,0-3.79-3.08c-1.91-1-3.81-.69-5.31-.9A21.3,21.3,0,0,1,46.06,304a14.74,14.74,0,0,1-3.4-2.9v0a254.45,254.45,0,0,0,3.27,26.16l.19.1"/><path class="cls-1" d="M42.37,293.52a15.36,15.36,0,0,0,3.28,3A22,22,0,0,0,51.1,298c1.47.25,3.33.07,5.25,1.11a16.28,16.28,0,0,1,3.69,3.2,230.18,230.18,0,0,1-.76-25.08l-.09.27A17.9,17.9,0,0,0,55.77,274c-1.8-1.22-3.67-1.19-5.15-1.61a22.13,22.13,0,0,1-5.19-2,14.38,14.38,0,0,1-3-3.35,253.82,253.82,0,0,0-.15,26.36l.12.17"/><path class="cls-1" d="M43.17,259.42A14,14,0,0,0,46,262.89a25.2,25.2,0,0,0,5.14,2.16c1.42.42,3.33.49,5,1.73a15.87,15.87,0,0,1,3.27,3.7,247.84,247.84,0,0,1,2.54-25l-.12.23a16.58,16.58,0,0,0-2.89-4c-1.64-1.44-3.49-1.66-4.91-2.26a23.28,23.28,0,0,1-4.94-2.63,14.87,14.87,0,0,1-2.51-3.7l0,0A244.54,244.54,0,0,0,43,259.29l.13.13"/><path class="cls-1" d="M48.41,225.78a15.13,15.13,0,0,0,2.37,3.77,22.26,22.26,0,0,0,4.86,2.83c1.34.59,3.22.92,4.77,2.4a16.3,16.3,0,0,1,2.74,4.09,247.11,247.11,0,0,1,5.77-24.43l-.14.15a16.44,16.44,0,0,0-2.33-4.27c-1.4-1.64-3.23-2.09-4.54-2.82a26.83,26.83,0,0,1-4.55-3.27,15,15,0,0,1-2-4v0a261.13,261.13,0,0,0-7.07,25.44l.12.13"/><path class="cls-1" d="M58.07,193.08a15.27,15.27,0,0,0,1.88,4.09,25.76,25.76,0,0,0,4.42,3.4c1.25.82,3.08,1.31,4.43,3A17,17,0,0,1,71,207.93a233.59,233.59,0,0,1,8.95-23.44l-.15.18A17.5,17.5,0,0,0,78,180.09c-1.13-1.79-3-2.51-4.1-3.4a22.75,22.75,0,0,1-4.13-3.82,15.76,15.76,0,0,1-1.44-4.21A256.2,256.2,0,0,0,58,192.91l.08.17"/><path class="cls-1" d="M71.92,162a15.21,15.21,0,0,0,1.37,4.26,25,25,0,0,0,3.89,3.92c1.18,1,2.89,1.73,4,3.55a17,17,0,0,1,1.61,4.61,247.73,247.73,0,0,1,11.95-22.09l-.19.17a16.08,16.08,0,0,0-1.15-4.83c-.93-1.86-2.55-2.76-3.62-3.85a23.16,23.16,0,0,1-3.52-4.26,15.49,15.49,0,0,1-.93-4.41l0,0a263.08,263.08,0,0,0-13.46,22.72l0,.23"/><path class="cls-1" d="M89.8,132.85a14.45,14.45,0,0,0,.76,4.36,25.51,25.51,0,0,0,3.38,4.49c1,1.06,2.62,2,3.52,4a18.1,18.1,0,0,1,.93,4.79,225.65,225.65,0,0,1,14.77-20.38l-.22.13a16.39,16.39,0,0,0-.49-4.88c-.69-2-2.17-3.13-3.08-4.32a22.11,22.11,0,0,1-2.94-4.74,14.19,14.19,0,0,1-.3-4.44l0,0a257.83,257.83,0,0,0-16.4,20.8l.05.22"/><path class="cls-1" d="M111.39,106.28a13.63,13.63,0,0,0,.17,4.42,21.69,21.69,0,0,0,2.72,4.86c.88,1.24,2.39,2.38,2.94,4.44a15.42,15.42,0,0,1,.32,4.93,249.06,249.06,0,0,1,17.34-18.3l-.24.07a16.15,16.15,0,0,0,.19-4.91c-.41-2.09-1.79-3.35-2.52-4.66A23.76,23.76,0,0,1,130,92.07a15.32,15.32,0,0,1,.25-4.47l0-.05c-6.62,5.85-12.91,12-19,18.5l0,.23"/><path class="cls-1" d="M136.25,82.7a15.29,15.29,0,0,0-.42,4.49,24.71,24.71,0,0,0,2.11,5.16c.68,1.31,2,2.68,2.29,4.76a14.8,14.8,0,0,1-.32,4.88c6.33-5.66,12.91-11,19.63-15.89l-.24.07a16,16,0,0,0,.8-4.84c-.1-2.11-1.34-3.59-1.86-5a22.27,22.27,0,0,1-1.59-5.31,15.26,15.26,0,0,1,.86-4.41c-7.26,4.91-14.38,10.2-21.26,15.89v.17"/><path class="cls-1" d="M164,62.63a15.72,15.72,0,0,0-1,4.32,26.82,26.82,0,0,0,1.41,5.41c.51,1.37,1.67,2.88,1.69,5a16.23,16.23,0,0,1-1,4.78Q175.64,75,186.65,69l-.22,0a17.84,17.84,0,0,0,1.44-4.71c.14-2.09-.84-3.72-1.22-5.16a24.93,24.93,0,0,1-.88-5.46,14.88,14.88,0,0,1,1.46-4.24l0,0a258.68,258.68,0,0,0-23.2,13l-.05.2"/><path class="cls-1" d="M194.24,46.24a15.29,15.29,0,0,0-1.61,4.21,24.67,24.67,0,0,0,.69,5.5c.34,1.44,1.27,3,1,5.21a15.25,15.25,0,0,1-1.59,4.66,233.56,233.56,0,0,1,23.1-10.34h-.27a16.47,16.47,0,0,0,2-4.46c.47-2.09-.32-3.79-.49-5.33a25.57,25.57,0,0,1-.17-5.53,15.4,15.4,0,0,1,2-4h0a256.45,256.45,0,0,0-24.67,9.9l-.05.17"/><path class="cls-1" d="M226.32,33.95a15.11,15.11,0,0,0-2.11,3.92,21.85,21.85,0,0,0,0,5.56c.09,1.47.8,3.2.29,5.26a18,18,0,0,1-2.22,4.41q12-4.25,24.25-7.29h-.22a16.29,16.29,0,0,0,2.57-4.19c.74-2,.22-3.79.22-5.26a23.19,23.19,0,0,1,.61-5.51,15.65,15.65,0,0,1,2.44-3.74h.05a256.18,256.18,0,0,0-25.77,6.64l-.09.2"/><path class="cls-1" d="M259.75,25.87a16,16,0,0,0-2.59,3.62,22.24,22.24,0,0,0-.81,5.48c0,1.49.39,3.35-.42,5.28a15.83,15.83,0,0,1-2.72,4.09,249.29,249.29,0,0,1,25-4l-.2-.12a15.52,15.52,0,0,0,3.13-3.79c.95-1.88.68-3.72.88-5.23a23.55,23.55,0,0,1,1.32-5.36,15.32,15.32,0,0,1,2.93-3.4h.08c-8.83.69-17.67,1.71-26.46,3.25l-.12.22"/><path class="cls-1" d="M294,22.17a15.94,15.94,0,0,0-3,3.23,22.32,22.32,0,0,0-1.54,5.36c-.24,1.47,0,3.33-1.08,5.18A16.57,16.57,0,0,1,285,39.64a242.34,242.34,0,0,1,25.35-.79l-.22-.07a17.92,17.92,0,0,0,3.59-3.38c1.2-1.74,1.19-3.64,1.61-5.06a21.72,21.72,0,0,1,2-5.18,14.64,14.64,0,0,1,3.37-2.95h.07a257.55,257.55,0,0,0-26.69-.2l-.12.17"/><path class="cls-1" d="M230.05,525.94s2.77,14,12.11,14.46c1.8-5.73,9.78-12.57,14.6-16l1.8-2.06c-1.52-11.68,3.81-18,3.81-18l-5.25,1.21A46.29,46.29,0,0,0,229.88,526l.17,0"/><path class="cls-1" d="M246.92,572.42a11.21,11.21,0,0,0,4.42-2.92h.08A26.68,26.68,0,0,1,241,547.79c-11.86-1.37-14.55-14.65-14.55-14.65l0,0a44.59,44.59,0,0,0-2.73,14.29,43.84,43.84,0,0,0,7.21,24.85h.17s9.17,2,15.82.1"/><path class="cls-1" d="M272.62,574.71a24.75,24.75,0,0,1-5.13.37,26.69,26.69,0,0,1-9.41-1.84H258c-2.56,8-21,6.3-21,6.3a46,46,0,0,0,24.83,12.22l-.12-.17s10.42-2.16,10.76-17l.1.13"/><path class="cls-1" d="M278.17,573.76a3,3,0,0,0,.34-.23l7.87,1.74c14.69,3.74,17.45,6,17.45,6S287.08,596.8,272.35,593c0,0,11-7.91,6.16-19.52"/><path class="cls-1" d="M327.57,570.09c-11.17-8.86-22-10.32-30.16-13l-16.29,11.23,19.41,6.38c5.89,1.54,7.38,4.31,14.79,9,0,0,17.16-9.77,12.25-13.66"/><path class="cls-1" d="M360.89,586.31c-6.33,6.28-16.74,6.67-16.74,6.67-7.38.2-14.32-.39-22.76-5.56,0,0,14.31-9.47,13.66-14.31,3.25.89,13.25,2.48,15.84.72,0,0,3.49,8.5,10,12.48"/><path class="cls-1" d="M335.26,524.91c7.41-6,13.89-8.34,18.88-6.84,17.21-7.37,20-8,20-8-6.74-7.47-13.71-9-25.42-8.61-5.28.18-21.44,6.12-24,9.7"/><path class="cls-1" d="M329.84,528.56s-11.3-9.4-9.14-16.09C308.13,523.4,303,528.9,292.63,528.9c-2.62.45-.34.08-.34.08a21.79,21.79,0,0,0-3.67,9.92,23.33,23.33,0,0,0,.2,5.58c11.37.65,10.64,1.06,21.07-1.74A44.81,44.81,0,0,0,324,533.5c1.19-1.14,4.64-3.77,5.82-4.94"/><path class="cls-1" d="M283.46,545.14s-1.24-.07.15-6.65a27.79,27.79,0,0,1,1.74-4.76,16.51,16.51,0,0,1,2.64-4.94h0l-3.2.13a177.12,177.12,0,0,1-21.1-3h0c-2.66.79-6.4,3.22-7.06,4.56s-2.16,2-3.11,2.95c-.68.72-3,3.67-3,3.67h0c8.58,3.75,24.37,8.33,33,8"/><path class="cls-1" d="M273.18,505.88c1.35-2.09,4.11-1.37,6.11-1.61,10.22-1.11,24.64,5.61,27.57,12.17l-4.6,3.44a20.12,20.12,0,0,1-9.44,4l-2.61-.92c-3.2-1.37-7.94-1.83-11.66-1.93s-7.7-.94-10.9.27c-3.79-4,5.53-15.33,5.53-15.33v-.07"/><path class="cls-1" d="M231.2,580.52a65,65,0,0,0-6,4.78l-3.73,3.54.19-.13s-11.88-13.76-21.19-5.81l-.09.05c4-4.86,7.45-9.3,9.43-11.23a31.24,31.24,0,0,1,8.11-6.13l-1,.69a21.12,21.12,0,0,1,3.84-1.49s2.45,11.48,10.42,15.75"/><path class="cls-1" d="M194.29,590.53c12.13-9.89,22.07,3.17,22.07,3.17l-9,8.66-13-11.83"/><polygon class="cls-1" points="201.8 607.67 203.48 605.84 191.55 594.43 189.86 596.27 201.8 607.67"/><path class="cls-1" d="M186.71,598.57a56.53,56.53,0,0,0-6.77,5L193.31,619l5.58-8.26-12.18-12.22"/><path class="cls-1" d="M408.31,602.72a66.72,66.72,0,0,1,6.58,5.3L401,623l-5.31-8.48,12.68-11.8"/><polygon class="cls-1" points="404.69 600.79 402.94 599 390.5 609.89 392.27 611.68 404.69 600.79"/><path class="cls-1" d="M401.05,594.43c-11.69-10.31-22.2,2.38-22.2,2.38l8.73,9,13.47-11.38"/><path class="cls-1" d="M378.38,568.65c-15.94-8.46-24.4,3.64-24.4,3.64,9.88,4.74,17.5,15.4,17.5,15.4l2.49,4.06-.2-.17s12.39-13.36,21.37-5l.1.07c-3.82-5-7.13-9.37-9-11.36a55.28,55.28,0,0,0-7.87-6.62"/><path class="cls-1" d="M318.93,543.24c-1.39.55,8.44,4,24,1.79l.13-.15a14.85,14.85,0,0,0,2.68-3.52,24.69,24.69,0,0,0,1.76-5.93,44.39,44.39,0,0,0,.64-4.47,11.76,11.76,0,0,1,.71-3.84c-1.78.89-11.05,4-11.05,4-2.55.6-4.28,1-4.28,1-1.44,1-2.54,2.36-3.69,3.33-.78.59-2.57,2.16-4.55,3.74-1,.85-5.75,3.7-6.36,4.14"/><path class="cls-1" d="M384.21,565c9.66-10.88,5.52-23.76,3.79-30l-19,8.63c.29.84,3.13,6.18-2.2,12.23,0,0,18.45,7.91,17.38,9.12"/><path class="cls-1" d="M347.18,569.67c0,.13,12.79-11.76,21-8.11l-1.85-1.63a44.69,44.69,0,0,0-25-8.8c-7.92-.27-21.69,2-24.88,7.12,0,0,11.91,2.33,19.36,9.8.68.69,3.81-.18,11.37,1.61"/><path class="cls-1" d="M151.55,277.6l7.63-15L176,265.15l-12.1-11.9,7.67-15L156.39,246l-12.14-11.81L147,250.75l-15.09,7.76L148.76,261l2.79,16.57m115.61,44.57-.42.07c-8.78.82-20,1.76-30.32,4-5-19.15-19-43.72-43.1-40.28-20.68,3-29.34,24-24.4,42.6-29.44,4.07-54.2-19.57-60.16-46.48-8.87-40.23,20.76-80.73,63.7-80.7,60.22.1,92.68,78.67,94.71,120.78"/><path class="cls-1" d="M459.05,277.69l2.79-16.61,16.86-2.48-15.09-7.79,2.78-16.57L454.26,246l-15.13-7.73,7.61,15.08-12.13,11.8,16.86-2.51,7.58,15M343.48,322.23c2-42.11,34.47-120.72,94.75-120.75,42.93-.1,72.56,40.48,63.68,80.7-5.94,26.88-30.73,50.52-60.21,46.45C446.67,310,438,289,417.34,286c-24.1-3.47-38.13,21.13-43.05,40.08-10.37-2-21.64-3-30.32-3.82Z"/><path class="cls-1" d="M305.47,349.17c38.94,0,70.24-3.59,70.24-6S344.18,337,305.25,337s-70.5,3.8-70.5,6.22,31.78,6,70.72,6m-.22,8.75c-45,0-81.5-6.59-81.5-14.75s36.5-14.7,81.5-14.7,81.46,6.59,81.46,14.7-36.47,14.75-81.46,14.75"/><path class="cls-1" d="M371.5,360.63a259.3,259.3,0,0,1-28.43,4.06l.1-.13c2,17.73,16.77,55.83,42.12,55.83,18.56,0,33-16.14,34.52-33.7-21.78,10.24-43.94-.44-48.46-26.12l.15.07"/><path class="cls-1" d="M267.19,364.69c-10.35-1-19.87-2.33-28.13-4l0-.23c-4.27,26.12-26.62,36.95-48.52,26.64,1.44,17.59,15.92,33.71,34.49,33.71,25.57,0,40.39-38.71,42.17-56.24l0,.07"/><path class="cls-2" d="M305.25,78.7c10.86,11.55,28.85,25.12,32.56,27.9,27.77,20.61,40.83,48.91,41,73.63.41,45.75-38.53,85.9-43.44,141.16A234.26,234.26,0,0,0,310.23,320c1-56-1.13-132-5-186.79-3.84,54.81-6,130.75-5,186.79a234.36,234.36,0,0,0-25.09,1.34c-4.86-55.26-43.83-95.41-43.52-141.16.24-24.72,13.28-53,41.05-73.63,3.72-2.78,21.73-16.35,32.56-27.9"/><path class="cls-2" d="M305.25,471.45c21.73-9.45,44-29.48,53.61-50-13.77-18.9-20.78-39.43-23-56-8,.55-16.45.92-25.21.92-1.12,14.9-1.08,46.48-5.43,63.58-4.38-17.09-4.33-48.68-5.4-63.58-8.8,0-17.26-.37-25.25-.92-2.15,16.57-9.17,37.1-22.95,56,9.54,20.56,31.9,40.58,53.59,50"/></g></svg>